<?xml version="1.0" standalone="no"?>
<!DOCTYPE svg PUBLIC "-//W3C//DTD SVG 20010904//EN"
 "http://www.w3.org/TR/2001/REC-SVG-20010904/DTD/svg10.dtd">
<svg version="1.0" xmlns="http://www.w3.org/2000/svg"
 width="342.000000pt" height="342.000000pt" viewBox="0 0 342.000000 342.000000"
 preserveAspectRatio="xMidYMid meet">
<metadata>
Created by potrace 1.14, written by Peter Selinger 2001-2017
</metadata>
<g transform="translate(0.000000,342.000000) scale(0.100000,-0.100000)"
fill="#000000" stroke="none">
<path d="M2730 3105 c-6 -8 -9 -18 -6 -23 3 -6 -1 -15 -9 -22 -11 -10 -18 -9
-31 4 -8 9 -19 14 -24 11 -5 -3 -11 1 -13 7 -4 10 -6 10 -6 1 -1 -8 -15 -13
-36 -13 -19 0 -35 -5 -35 -11 0 -8 -4 -8 -14 0 -21 18 -112 10 -108 -9 2 -11
-1 -11 -11 3 -17 21 -103 24 -110 5 -2 -8 -8 -9 -13 -4 -5 5 -4 11 4 13 6 3
12 9 12 14 0 6 -5 7 -12 3 -8 -5 -9 -1 -5 12 7 18 6 18 -6 2 -8 -10 -18 -14
-22 -10 -5 4 -5 1 -1 -6 4 -7 12 -10 17 -7 5 4 6 -2 2 -11 -4 -11 -8 -13 -11
-6 -2 7 -18 12 -35 12 -21 0 -27 -3 -19 -9 8 -5 0 -7 -22 -7 -19 1 -32 4 -29
8 7 13 -12 9 -25 -4 -7 -7 -12 -8 -12 -3 0 6 -4 4 -9 -3 -7 -11 -9 -10 -14 3
-5 11 -3 14 6 9 7 -4 8 -3 4 2 -5 5 -27 9 -50 10 -23 1 -52 4 -64 7 -17 4 -26
0 -34 -16 -12 -21 -12 -21 15 -4 14 10 26 13 26 7 0 -6 4 -9 8 -6 5 3 9 -2 9
-10 0 -9 -4 -11 -10 -5 -11 11 -38 3 -49 -13 -5 -7 -8 -6 -8 3 0 11 -4 9 -15
-5 -13 -17 -13 -14 0 19 18 45 12 49 -10 7 -9 -17 -20 -28 -25 -25 -4 3 -16
-2 -24 -11 -9 -8 -16 -11 -16 -5 0 5 5 13 10 16 13 8 -6 35 -23 35 -6 0 -3 -6
7 -13 17 -13 18 -14 2 -20 -10 -4 -14 -12 -10 -18 4 -8 3 -9 -4 -5 -6 4 -9 13
-6 20 3 8 1 17 -5 21 -7 3 -8 0 -5 -10 5 -11 2 -14 -10 -9 -9 3 -16 1 -16 -6
0 -6 4 -9 9 -6 5 3 11 0 14 -7 3 -8 -1 -14 -9 -14 -8 0 -14 4 -14 9 0 5 -5 6
-11 2 -8 -4 -9 0 -4 15 4 12 2 21 -4 21 -6 0 -10 -3 -10 -7 3 -19 -2 -33 -12
-33 -6 0 -8 7 -5 16 5 14 4 15 -9 4 -8 -7 -15 -9 -15 -5 0 4 -6 2 -14 -4 -12
-10 -14 -8 -12 14 3 25 3 25 -16 8 -11 -10 -22 -13 -26 -8 -14 20 -117 31
-105 12 4 -8 1 -8 -9 1 -8 7 -23 10 -32 6 -9 -3 -16 -1 -16 5 0 15 -77 14 -83
-1 -4 -10 -8 -10 -15 0 -5 8 -13 14 -17 14 -4 0 -12 -6 -17 -14 -8 -10 -9 -10
-5 2 2 9 14 14 30 13 28 -2 32 3 18 25 -7 11 -9 10 -15 -3 -3 -9 -10 -14 -15
-10 -5 3 -13 0 -17 -6 -5 -8 -13 -4 -26 12 -19 23 -19 23 -8 1 9 -18 8 -23 -5
-28 -8 -3 -12 -11 -8 -18 5 -7 2 -7 -8 1 -16 13 -36 12 -58 -1 -8 -6 -12 -5
-8 0 3 5 0 17 -7 26 -12 16 -14 16 -26 -6 -10 -20 -17 -23 -35 -16 -15 6 -22
5 -22 -5 0 -7 6 -11 13 -8 6 2 15 -1 20 -8 4 -8 3 -10 -5 -5 -6 4 -18 3 -25
-3 -8 -7 -18 -11 -22 -10 -22 4 -35 -2 -28 -12 5 -8 1 -8 -14 0 -28 15 -31 14
-27 -7 2 -11 -3 -19 -10 -19 -8 0 -12 10 -10 23 1 15 -2 21 -9 16 -6 -3 -15
-7 -21 -8 -5 0 -16 -2 -23 -2 -10 -2 -10 -7 -2 -24 10 -21 10 -21 -3 -6 -8 10
-17 14 -21 10 -4 -4 -6 -2 -5 3 5 17 -21 56 -33 49 -7 -4 -6 -9 3 -15 10 -6
10 -9 2 -9 -19 0 -24 17 -8 30 12 10 18 10 30 0 8 -7 12 -17 8 -23 -4 -6 -1
-7 7 -2 9 6 11 4 5 -5 -5 -9 -4 -11 4 -6 8 6 9 12 2 20 -6 7 -7 17 -3 21 4 5
2 5 -5 1 -6 -3 -14 -2 -17 3 -6 10 -66 9 -83 -2 -6 -4 -15 -2 -19 4 -5 8 -3 9
6 4 9 -5 11 -4 6 3 -10 17 -26 15 -26 -2 0 -8 -5 -18 -11 -22 -7 -4 -9 0 -5
14 8 24 -9 38 -28 23 -9 -7 -16 -7 -23 0 -8 8 -13 7 -18 -2 -6 -8 -4 -10 5 -4
9 5 11 4 6 -3 -11 -18 -21 -14 -36 13 -7 14 -15 23 -18 20 -3 -2 0 -11 7 -18
9 -11 7 -17 -6 -28 -16 -13 -17 -12 -4 4 12 16 10 17 -38 17 -33 0 -51 -4 -51
-12 0 -7 -7 -3 -15 9 -15 21 -52 22 -39 1 4 -6 9 -6 14 2 5 9 9 8 13 -2 6 -17
-24 -20 -35 -4 -5 8 -13 8 -27 -1 -13 -8 -22 -9 -26 -3 -4 6 -1 9 6 8 6 -2 14
4 16 12 3 9 1 11 -4 5 -13 -17 -38 -11 -37 8 1 9 -3 14 -8 11 -5 -3 -7 -12 -4
-20 8 -20 -18 -28 -44 -14 -13 7 -20 8 -16 2 3 -5 -1 -12 -9 -16 -8 -3 -17 -1
-20 4 -4 6 -12 10 -18 10 -8 0 -8 -3 1 -9 11 -6 10 -10 -3 -15 -9 -3 -15 -12
-12 -19 3 -8 -1 -14 -9 -14 -9 0 -13 6 -10 14 4 8 1 11 -5 7 -6 -3 -8 -15 -6
-26 5 -19 5 -19 -14 -2 -10 9 -22 14 -26 11 -3 -4 -2 -7 4 -7 5 0 15 -12 22
-27 l12 -28 -18 22 c-17 21 -42 20 -46 -3 -1 -5 -5 -8 -8 -7 -4 1 -4 -7 -1
-19 5 -19 7 -17 23 13 16 33 17 33 16 7 -1 -14 -5 -24 -9 -22 -4 2 -9 -5 -13
-16 -3 -11 -11 -20 -16 -20 -6 0 -8 4 -5 9 3 4 -1 17 -10 27 -15 18 -15 18 -6
-1 5 -11 6 -29 1 -40 -4 -11 -8 -16 -8 -12 -1 4 -9 3 -19 -2 -13 -7 -18 -20
-17 -45 1 -20 -2 -36 -7 -36 -5 0 -6 -5 -2 -11 4 -8 9 -7 15 2 4 7 6 16 3 20
-2 4 0 10 6 14 7 4 6 13 -1 27 -10 18 -9 20 5 15 11 -5 15 -3 10 5 -4 6 -3 8
4 5 11 -8 11 -25 -1 -44 -5 -7 -5 -13 -1 -13 3 0 1 -7 -6 -15 -6 -8 -8 -20 -4
-26 4 -8 3 -9 -5 -5 -16 10 -26 -21 -12 -38 9 -11 8 -18 -4 -30 -18 -18 -29
-21 -20 -6 3 6 -1 7 -9 4 -16 -6 -23 -25 -9 -23 5 1 17 1 28 -1 l20 -1 -20 -8
c-11 -5 -24 -6 -28 -4 -5 3 -4 -5 3 -17 11 -20 10 -22 -4 -17 -8 3 -18 1 -22
-5 -4 -6 -3 -8 3 -5 19 12 50 -21 48 -50 -1 -15 2 -36 7 -45 6 -13 5 -16 -5
-12 -8 3 -14 15 -13 26 0 12 -6 23 -14 25 -9 3 -11 1 -5 -4 19 -15 17 -36 -2
-29 -17 6 -17 5 0 -8 10 -8 14 -16 10 -18 -4 -3 -2 -3 5 -2 6 2 12 -1 12 -7 0
-6 5 -7 12 -3 7 5 8 3 4 -5 -5 -7 -14 -10 -22 -7 -8 3 -11 0 -7 -9 3 -8 9 -13
13 -10 4 3 14 -3 21 -12 8 -9 9 -14 3 -10 -7 4 -11 -2 -11 -18 0 -15 4 -22 11
-18 6 3 6 0 -1 -8 -7 -7 -13 -23 -13 -36 0 -21 -10 -28 -35 -23 -5 1 -6 -2 -2
-7 5 -4 14 -8 20 -8 7 0 12 -12 12 -27 0 -14 4 -30 9 -35 5 -4 6 -3 2 4 -3 6
-2 14 4 18 7 4 7 13 -1 26 -11 22 -7 35 9 25 5 -3 8 -15 6 -28 -1 -13 -3 -33
-3 -45 -1 -20 -4 -21 -26 -13 -14 5 -25 7 -25 5 0 -3 10 -9 23 -14 24 -9 31
-50 13 -81 -7 -12 -6 -13 5 -2 15 14 29 16 29 3 0 -5 -9 -13 -20 -16 -26 -8
-26 -20 1 -22 29 -2 35 -11 19 -26 -10 -9 -11 -9 -6 1 4 6 3 12 -3 12 -5 0 -9
-9 -8 -19 0 -11 5 -17 9 -15 4 3 8 0 8 -6 0 -6 5 -8 11 -4 8 5 8 1 0 -14 -6
-11 -16 -23 -23 -26 -7 -3 -2 -3 11 0 16 4 21 3 17 -5 -4 -6 -1 -11 6 -11 8 0
9 -3 3 -8 -5 -4 -10 -13 -11 -19 -2 -30 -5 -34 -16 -27 -7 4 -8 3 -4 -5 6 -9
11 -9 22 0 8 6 17 9 21 5 3 -3 1 -6 -5 -6 -7 0 -12 -12 -12 -27 -1 -26 -2 -27
-14 -10 -12 16 -14 16 -20 2 -3 -9 -2 -13 3 -10 10 6 24 -11 27 -33 2 -8 5
-17 9 -20 3 -4 4 6 1 22 -3 16 -2 25 2 22 4 -4 7 -19 8 -34 1 -15 5 -35 9 -44
4 -11 3 -18 -5 -18 -6 0 -9 4 -6 8 2 4 1 14 -3 21 -6 10 -10 9 -14 -3 -7 -18
20 -49 35 -40 7 4 8 2 4 -5 -4 -6 -13 -8 -19 -4 -7 4 -6 0 2 -10 7 -9 10 -17
7 -17 -4 0 -2 -10 4 -22 11 -22 10 -22 -4 -4 -9 10 -13 23 -9 29 3 6 1 7 -5 3
-9 -5 -8 -15 3 -36 19 -37 19 -46 0 -30 -19 16 -20 3 -1 -15 7 -8 16 -11 20
-8 3 4 6 2 6 -3 0 -6 -5 -15 -12 -22 -16 -16 4 -16 22 1 12 10 12 9 1 -5 -7
-10 -9 -18 -4 -18 5 0 10 -7 10 -15 0 -8 -4 -12 -9 -9 -4 3 -8 -2 -8 -11 0
-10 5 -13 12 -9 7 4 8 3 4 -5 -4 -6 -11 -9 -16 -6 -5 3 -12 0 -16 -6 -4 -7 -3
-9 4 -5 7 4 9 -6 8 -29 -2 -19 1 -32 6 -29 5 3 6 14 3 25 -4 12 -2 19 6 19 7
0 9 -3 6 -6 -3 -4 -2 -16 4 -27 8 -14 8 -18 0 -13 -6 4 -11 0 -11 -9 0 -10 5
-13 12 -9 7 4 8 3 4 -4 -4 -7 -2 -12 5 -12 7 0 9 -3 6 -7 -4 -3 -2 -12 5 -20
6 -7 8 -16 4 -20 -3 -3 -6 -1 -6 7 0 10 -4 10 -17 -1 -15 -12 -16 -12 -8 1 6
12 5 13 -5 3 -16 -15 -12 -21 18 -26 12 -2 25 -7 29 -12 5 -4 2 -5 -6 0 -10 6
-11 2 -6 -16 l8 -24 -20 23 c-18 23 -19 23 -19 4 0 -11 5 -18 10 -15 5 4 7 -1
3 -11 -5 -11 -3 -15 5 -10 8 5 9 2 4 -12 -4 -10 -9 -23 -10 -29 -1 -5 -6 -17
-11 -25 -8 -13 -7 -13 8 -1 9 7 15 17 12 21 -3 4 1 13 8 18 10 9 13 6 13 -13
0 -13 -2 -22 -5 -20 -4 4 -31 -41 -31 -52 0 -3 9 5 21 18 19 23 20 23 10 2
-14 -28 -14 -33 1 -29 7 1 10 1 6 -1 -5 -3 -4 -13 2 -22 5 -10 6 -21 3 -25 -3
-3 -2 -6 3 -6 12 0 12 -75 1 -86 -4 -5 -5 -1 -1 9 3 10 1 17 -6 17 -6 0 -9 -4
-6 -9 4 -5 0 -12 -6 -14 -10 -4 -10 -6 0 -6 18 -1 15 -22 -6 -37 -9 -7 -13
-14 -9 -14 4 0 22 15 39 33 18 17 26 24 18 14 -12 -16 -12 -20 1 -29 12 -8 11
-9 -2 -5 -9 3 -21 -4 -29 -16 -11 -19 -11 -20 1 -11 11 9 17 9 28 -3 11 -12
10 -14 -4 -11 -12 2 -19 -5 -21 -22 -3 -18 -2 -21 5 -10 5 8 7 18 4 23 -3 5 4
4 16 -2 24 -13 28 -23 6 -15 -10 4 -15 0 -15 -11 0 -10 5 -14 12 -9 7 4 10 3
5 -1 -4 -5 1 -17 10 -28 18 -20 18 -20 -7 -4 -26 16 -26 16 -24 -11 2 -41 3
-42 19 -42 8 0 15 -3 16 -7 0 -5 2 -16 4 -26 2 -9 -1 -15 -6 -11 -5 3 -9 0 -9
-6 0 -6 -5 -8 -12 -4 -7 4 -8 3 -4 -4 4 -6 14 -8 24 -5 15 6 16 5 2 -12 -14
-16 -13 -17 8 -11 14 5 22 3 22 -4 0 -6 -4 -9 -9 -6 -5 3 -11 -5 -13 -19 -4
-18 -1 -25 10 -25 8 0 12 -3 9 -6 -3 -4 -1 -16 5 -28 7 -11 11 -25 9 -31 -1
-5 6 -15 15 -22 17 -12 17 -13 -1 -13 -17 0 -16 -2 5 -25 12 -13 28 -21 34
-18 6 4 5 -1 -2 -9 -8 -9 -20 -14 -28 -11 -8 3 -14 0 -14 -5 0 -6 15 -9 33 -7
17 2 26 1 19 -2 -6 -2 -9 -10 -6 -15 4 -7 2 -8 -4 -4 -8 5 -10 2 -6 -8 3 -9
11 -13 17 -9 36 22 58 -2 27 -30 -12 -10 -12 -9 -2 4 10 14 10 18 -4 23 -12 5
-15 2 -10 -10 5 -12 2 -15 -11 -10 -16 5 -16 4 1 -9 10 -8 23 -12 28 -9 16 10
58 12 64 2 3 -4 2 -8 -3 -7 -22 4 -32 -2 -27 -16 5 -11 2 -13 -10 -9 -14 5
-14 9 -4 23 11 14 11 14 -4 3 -17 -13 -18 -36 -3 -49 4 -4 5 -2 1 5 -5 8 0 11
16 8 13 -2 22 -8 21 -13 -1 -5 8 -10 19 -10 12 -1 24 -7 28 -13 4 -6 11 -10
16 -9 21 4 28 -2 14 -11 -8 -5 -10 -10 -4 -10 6 0 18 8 25 17 8 9 9 14 2 10
-7 -5 -9 0 -5 15 5 20 6 20 12 3 7 -20 38 -29 55 -15 7 6 11 1 12 -13 2 -18 0
-19 -8 -7 -9 12 -10 12 -5 -4 5 -14 2 -17 -10 -12 -8 3 -18 6 -20 6 -3 0 -3 4
0 8 3 5 -1 9 -8 9 -11 0 -11 -4 -4 -17 10 -15 24 -17 61 -11 4 0 7 10 7 20 0
11 4 22 8 25 10 6 8 -36 -3 -55 -7 -11 -6 -12 7 -2 8 7 19 9 23 5 5 -4 5 -1 1
6 -9 14 10 17 19 2 4 -6 11 -8 16 -4 5 3 7 10 4 15 -4 5 -2 17 4 26 7 14 9 9
7 -21 -3 -34 -2 -37 9 -23 6 9 16 13 20 9 5 -4 5 -1 1 6 -4 7 -12 9 -18 6 -6
-4 -6 2 1 14 10 18 15 20 36 10 13 -6 22 -15 18 -21 -3 -5 0 -7 8 -5 8 3 13
10 12 16 -2 6 4 9 12 6 8 -4 15 -10 15 -16 0 -5 -6 -6 -12 -2 -9 6 -9 3 0 -9
8 -9 10 -22 6 -28 -5 -8 -3 -9 5 -5 7 5 10 14 7 22 -7 19 4 17 20 -3 13 -17
14 -17 8 0 -8 22 15 20 33 -3 12 -13 12 -13 8 0 -4 11 4 16 36 18 23 1 38 -1
35 -7 -3 -5 5 -4 18 2 15 7 22 17 18 26 -5 14 -4 14 10 1 8 -8 14 -20 11 -26
-2 -7 0 -15 6 -19 7 -4 8 0 4 11 -6 15 -4 15 20 -1 26 -16 53 -13 42 6 -9 13
4 49 17 49 6 0 8 -3 5 -7 -8 -7 11 -33 24 -33 4 0 11 9 14 21 4 11 9 18 12 16
2 -3 0 -14 -6 -26 -11 -21 2 -40 14 -21 5 8 11 7 21 -1 9 -7 14 -8 13 -3 -5
15 12 54 22 54 5 0 9 -4 9 -10 0 -5 -4 -10 -8 -10 -4 0 -8 -10 -9 -22 -1 -18
2 -16 17 12 11 19 19 30 20 23 0 -7 7 -10 17 -6 12 5 14 3 8 -7 -5 -9 -4 -11
4 -6 6 4 20 2 29 -5 15 -12 15 -12 0 7 -23 26 -23 48 -2 40 9 -3 20 -6 25 -6
5 0 9 -5 9 -10 0 -7 -8 -7 -22 1 -22 11 -22 11 -5 -7 18 -19 19 -19 32 0 16
21 10 40 -11 32 -7 -3 -16 -1 -19 4 -3 5 8 7 24 5 25 -3 29 -1 24 13 -6 14 -5
15 9 2 11 -10 13 -19 7 -27 -7 -7 -6 -14 1 -18 6 -4 9 -1 8 7 -2 7 3 12 10 10
18 -3 15 15 -4 22 -8 3 -12 11 -9 16 4 7 11 7 18 2 19 -14 49 -23 42 -12 -3 6
-14 10 -23 10 -13 0 -13 2 4 15 18 13 17 14 -11 9 -20 -3 -26 -1 -16 5 7 5 21
8 29 7 17 -3 51 25 45 37 -3 4 -1 6 4 5 4 -1 19 4 33 11 l25 12 -25 -20 -25
-20 25 1 c47 2 51 -1 44 -27 -4 -15 -2 -25 5 -25 5 0 19 -9 30 -21 14 -15 21
-17 26 -8 5 8 4 10 -3 5 -7 -4 -12 -2 -12 3 0 6 7 11 15 11 8 0 15 -9 15 -21
0 -11 4 -18 10 -14 5 3 7 13 4 23 -5 14 -4 14 4 2 6 -8 8 -18 6 -22 -3 -4 2
-8 11 -8 13 0 14 4 5 23 -11 21 -11 22 5 2 9 -11 18 -19 21 -17 2 1 18 -5 35
-13 23 -12 34 -13 44 -5 9 8 15 8 20 0 4 -6 2 -9 -3 -8 -6 2 -10 -1 -10 -7 0
-5 5 -8 12 -6 6 2 31 5 56 6 25 1 40 0 33 -2 -7 -2 -9 -12 -6 -21 4 -15 3 -15
-6 -2 -6 8 -11 10 -11 4 0 -16 25 -36 34 -27 12 12 67 13 60 1 -4 -7 -2 -8 4
-4 7 4 12 17 12 29 0 17 2 19 9 8 6 -9 6 -22 0 -32 -6 -12 -5 -20 3 -25 6 -4
8 -3 5 2 -3 6 -2 16 3 24 8 13 13 13 31 2 11 -8 18 -9 14 -3 -8 14 1 14 27 0
11 -6 18 -7 14 -1 -3 5 5 10 19 10 16 0 22 -5 18 -12 -4 -6 1 -5 10 3 13 10
20 11 31 2 10 -9 16 -9 21 -1 5 7 11 8 19 1 13 -11 76 -12 76 -1 0 10 33 9 47
-2 7 -6 14 -5 18 2 5 7 11 8 19 1 6 -5 26 -9 44 -9 28 1 32 4 27 22 -3 12 -2
15 1 8 3 -6 11 -9 16 -6 7 5 8 2 3 -6 -5 -9 -4 -11 3 -6 7 4 12 1 12 -6 0 -9
3 -9 10 2 5 8 10 11 10 6 0 -6 9 0 21 12 11 12 24 20 29 17 4 -3 10 -2 13 2 2
5 2 2 1 -5 -5 -20 12 -14 30 10 8 13 13 16 11 8 -4 -11 1 -16 15 -16 11 0 20
5 20 11 0 5 5 2 11 -7 6 -11 16 -15 26 -11 12 5 14 3 8 -7 -5 -9 -4 -11 4 -6
14 9 3 29 -13 23 -7 -3 -13 1 -13 8 0 11 6 11 29 -1 17 -9 26 -20 23 -27 -4
-7 2 -2 12 9 18 20 21 20 31 5 10 -13 10 -11 1 8 -11 22 -13 23 -24 8 -13 -18
-22 -13 -39 23 -6 12 -5 12 6 -1 14 -17 38 -15 34 4 -1 7 -1 9 1 4 3 -4 10 -4
16 0 29 18 94 2 80 -20 -4 -6 -1 -7 7 -2 10 6 9 11 -4 21 -19 13 -11 23 16 19
16 -3 16 -1 2 20 -11 18 -12 25 -3 31 7 4 9 3 6 -3 -4 -6 -1 -16 6 -21 10 -9
13 -5 11 18 -1 17 2 27 7 24 5 -3 9 3 9 13 0 15 2 16 10 3 13 -20 12 -31 -1
-28 -6 2 -14 -4 -16 -12 -4 -12 -3 -12 5 -2 5 8 12 13 16 13 24 -3 28 0 16 14
-7 8 -9 15 -5 15 4 0 2 6 -4 14 -10 11 -9 14 3 12 9 -1 19 -6 23 -11 4 -4 2
-5 -4 -1 -9 5 -11 2 -7 -8 7 -19 25 -21 22 -3 -2 6 3 11 10 9 6 -1 12 3 12 9
0 6 -7 9 -15 5 -11 -4 -14 1 -11 25 1 16 7 28 12 27 13 -4 14 -28 1 -28 -5 0
-8 -3 -4 -6 3 -3 14 -1 24 5 11 6 13 11 5 11 -7 0 -10 5 -7 10 5 8 12 7 23 -2
14 -10 15 -10 5 2 -7 8 -13 18 -13 23 0 4 6 5 13 1 6 -4 9 -3 4 1 -4 5 0 16 8
25 13 15 13 19 -6 39 -18 19 -19 22 -4 19 10 -2 20 3 23 11 2 8 0 11 -5 8 -5
-3 -10 0 -10 7 0 9 7 12 16 8 13 -5 14 -3 4 10 -13 15 -8 28 11 28 7 0 7 -3 0
-8 -9 -5 -8 -11 2 -20 12 -11 14 -10 10 12 -3 14 0 28 5 31 5 4 2 16 -7 30
-15 23 -5 43 15 31 5 -3 8 2 7 11 0 10 4 18 11 18 6 0 15 4 20 9 4 5 3 6 -3 3
-6 -4 -19 2 -29 13 -10 11 -23 17 -29 13 -6 -4 -4 1 4 11 19 24 25 60 8 50 -9
-5 -9 -2 1 9 10 13 11 20 2 31 -9 11 -9 16 0 22 8 4 9 3 5 -4 -4 -7 -1 -12 7
-12 22 0 16 30 -7 31 -16 0 -17 2 -6 7 22 10 26 44 4 35 -12 -4 -15 -3 -10 5
4 7 16 12 26 12 10 0 21 4 24 8 3 4 -8 7 -24 6 -28 -2 -29 -1 -13 22 8 13 19
21 24 18 5 -3 6 2 3 10 -3 9 -10 16 -16 16 -5 0 -7 -4 -4 -8 3 -5 -1 -9 -8 -9
-7 0 -13 6 -13 13 0 7 5 12 10 11 5 -1 12 4 14 11 3 8 -1 10 -13 5 -12 -4 -15
-3 -10 5 9 15 36 15 36 0 0 -6 2 -9 5 -6 3 3 3 13 -1 22 -4 11 -13 15 -28 11
-12 -4 -16 -3 -10 2 6 4 10 18 9 30 -1 14 3 19 12 16 10 -4 11 -9 2 -19 -7 -9
-8 -14 -1 -14 13 0 21 21 14 38 -2 6 -10 12 -17 12 -8 0 -17 5 -21 12 -5 7 -3
8 6 3 10 -6 12 -4 7 8 -5 12 -1 17 13 17 10 0 22 4 25 10 3 6 -1 7 -10 4 -25
-10 -47 14 -34 38 6 11 8 26 5 34 -4 9 3 18 17 24 15 6 17 9 6 9 -9 1 -19 7
-22 14 -8 20 8 41 24 32 9 -6 8 -10 -7 -16 -16 -6 -16 -8 -2 -8 31 -2 29 19
-4 39 -18 11 -27 20 -20 20 6 0 12 7 12 16 0 8 -4 12 -10 9 -5 -3 -10 -4 -10
-1 0 3 12 12 28 21 l27 16 -30 -5 c-16 -3 -24 -3 -17 0 6 3 12 14 12 24 0 10
5 20 11 22 9 3 9 10 -1 27 -10 19 -10 25 1 33 10 6 6 7 -10 3 -15 -5 -21 -3
-17 3 3 6 0 13 -6 16 -7 3 1 3 17 0 28 -5 28 -4 10 8 -11 7 -21 19 -23 27 -4
18 28 52 42 44 6 -3 7 -2 3 3 -5 5 -14 9 -20 9 -7 1 -11 6 -10 13 2 7 -2 12
-7 12 -13 0 -13 -13 1 -27 7 -7 6 -12 -5 -16 -11 -4 -13 -1 -9 10 4 11 3 14
-6 9 -7 -5 -10 -2 -9 6 2 7 12 18 23 25 11 7 14 12 8 13 -7 0 -12 6 -10 13 1
6 -6 12 -15 12 -9 0 -19 3 -23 7 -4 3 6 5 22 4 24 -1 28 2 29 24 1 14 -1 20
-3 13 -2 -7 -12 -9 -21 -6 -15 4 -15 3 -2 -6 8 -6 10 -11 4 -11 -16 0 -23 10
-17 26 3 8 9 11 15 8 5 -3 8 2 6 12 -2 12 2 18 10 16 8 -1 11 2 7 8 -8 13 -11
13 -29 -6 -9 -8 -16 -11 -16 -5 0 5 5 13 10 16 6 4 8 10 5 15 -3 4 1 7 8 6 6
0 13 4 14 9 1 6 -5 9 -13 7 -8 -2 -14 1 -14 6 0 19 14 21 36 7 18 -11 25 -12
30 -2 4 6 4 9 -1 5 -10 -10 -37 11 -30 23 3 4 -4 6 -16 4 -17 -3 -19 -2 -9 10
6 8 9 19 6 24 -4 5 -1 13 5 17 8 5 9 3 4 -6 -5 -8 -4 -11 3 -6 6 4 8 14 5 23
-4 10 -2 14 5 9 6 -3 14 -1 18 5 4 7 3 9 -3 6 -6 -4 -14 0 -17 9 -4 11 -2 15
6 11 9 -3 13 6 14 24 1 16 -3 29 -7 29 -5 0 -8 -3 -8 -7 3 -20 -2 -33 -12 -33
-8 0 -8 4 0 13 8 10 7 17 -2 27 -9 10 -9 11 1 6 7 -5 12 -1 12 9 0 10 -5 13
-12 9 -10 -6 -10 -5 -1 7 7 9 11 25 8 38 -2 12 0 19 6 16 5 -4 9 -1 9 5 0 6 5
8 10 5 6 -4 8 -10 5 -15 -3 -5 -1 -11 4 -14 11 -7 9 14 -4 34 -12 19 -13 53
-2 61 5 3 1 9 -8 12 -9 4 -13 3 -10 -3 10 -16 -1 -11 -16 7 -10 11 -10 14 -1
9 8 -5 12 -1 12 13 0 10 6 22 13 24 10 4 10 6 0 6 -7 1 -13 6 -13 12 0 5 4 8
8 5 5 -3 9 1 9 9 0 8 -5 11 -10 8 -6 -4 -8 0 -4 10 3 9 1 19 -5 23 -7 4 -8 3
-4 -4 4 -7 2 -12 -3 -12 -16 0 -13 11 7 33 16 19 16 20 -5 8 -26 -13 -44 -15
-24 -2 21 14 22 98 1 97 -8 -1 -14 5 -12 12 1 6 -3 12 -9 12 -5 0 -8 4 -5 9 4
5 0 12 -6 15 -7 3 -2 3 12 0 17 -4 21 -2 12 4 -8 5 -13 13 -12 18 1 5 -3 10
-9 12 -6 2 -11 -2 -11 -9 0 -7 -2 -10 -5 -7 -8 7 6 39 14 34 4 -3 7 5 8 17 0
12 -1 16 -4 9 -3 -6 -9 -10 -14 -6 -5 3 -9 -3 -10 -13 0 -11 -3 -13 -6 -5 -3
7 1 19 7 28 11 12 10 13 -5 8 -13 -5 -16 -4 -11 5 5 8 -5 25 -27 46 -27 25
-32 35 -21 39 10 4 12 2 8 -6 -5 -7 -3 -8 6 -3 10 6 8 12 -9 27 -13 10 -20 18
-16 18 5 0 0 9 -10 20 -10 11 -21 17 -26 15 -4 -3 -12 3 -18 12 -6 10 -11 13
-11 7 0 -7 -9 -14 -19 -17 -15 -4 -18 0 -17 24 1 15 0 27 -3 27 -20 -2 -22 4
-7 15 16 12 16 13 -2 13 -20 0 -23 -11 -8 -34 4 -7 5 -16 2 -19 -3 -4 -6 -1
-6 6 0 7 -5 9 -12 5 -6 -4 -8 -3 -4 4 3 6 2 13 -4 17 -6 4 -7 11 -4 17 4 6 2
8 -4 4 -6 -3 -12 2 -14 11 -3 15 -5 14 -10 -4 -4 -14 -2 -21 5 -20 6 1 12 -7
14 -18 2 -15 1 -16 -5 -4 -4 9 -16 15 -28 14 -11 -1 -21 4 -21 11 0 7 7 10 16
7 14 -4 14 -3 1 6 -11 7 -19 6 -31 -5 -13 -11 -19 -12 -24 -4 -6 9 -10 9 -16
-1 -6 -10 -8 -5 -5 14 3 15 1 25 -5 22 -5 -4 -9 -13 -9 -21 0 -8 -4 -14 -10
-14 -5 0 -7 7 -3 16 4 12 2 15 -8 12 -8 -3 -13 -10 -12 -16 2 -6 -4 -9 -12 -6
-8 4 -15 10 -15 16 0 5 6 6 13 2 8 -5 8 -2 -2 9 -11 14 -11 20 -1 32 7 8 10
15 7 15 -2 0 -10 -7 -17 -15z m-2207 -48 c3 -8 -1 -14 -8 -14 -7 0 -11 6 -8
14 3 7 6 13 8 13 2 0 5 -6 8 -13z m327 9 c0 -3 -4 -8 -10 -11 -5 -3 -10 -1
-10 4 0 6 5 11 10 11 6 0 10 -2 10 -4z m401 -23 c-12 -20 -14 -14 -5 12 4 9 9
14 11 11 3 -2 0 -13 -6 -23z m856 10 c0 -9 -4 -10 -10 -4 -5 5 -16 7 -23 4 -8
-3 -14 -1 -14 4 0 5 11 9 23 9 13 0 24 -6 24 -13z m-1627 -4 c12 -9 12 -10 -4
-5 -10 4 -25 1 -32 -5 -9 -7 -14 -8 -14 -1 0 9 14 19 30 21 3 0 12 -4 20 -10z
m-63 -19 c1 -16 -1 -17 -12 -7 -11 10 -8 19 10 27 1 0 1 -9 2 -20z m523 15 c0
-2 -6 -8 -13 -14 -10 -8 -14 -7 -14 2 0 8 6 14 14 14 7 0 13 -1 13 -2z m115
-56 c11 -16 1 -19 -13 -3 -7 8 -8 14 -3 14 5 0 13 -5 16 -11z m1970 -29 c3 -5
1 -10 -4 -10 -6 0 -11 5 -11 10 0 6 2 10 4 10 3 0 8 -4 11 -10z m34 -31 c-8
-4 -4 -9 10 -14 13 -4 20 -9 17 -12 -11 -11 -55 27 -50 42 5 12 9 13 21 4 10
-9 11 -14 2 -20z m71 -103 c0 -3 -4 -8 -10 -11 -5 -3 -10 -1 -10 4 0 6 5 11
10 11 6 0 10 -2 10 -4z m-2920 -188 c0 -19 -16 -5 -17 14 -2 18 0 20 7 8 5 -8
10 -18 10 -22z m2995 -17 c3 -5 2 -12 -3 -15 -5 -3 -9 1 -9 9 0 17 3 19 12 6z
m20 -122 c-4 -5 -12 -9 -18 -8 -9 0 -8 2 1 6 6 2 9 10 6 15 -4 7 -2 8 5 4 6
-4 9 -12 6 -17z m5 -109 c-9 -6 -9 -9 -1 -13 8 -4 8 -5 0 -3 -7 1 -13 9 -15
18 -1 11 3 15 13 11 11 -4 12 -8 3 -13z m7 -36 c-3 -3 -12 -4 -19 -1 -8 3 -5
6 6 6 11 1 17 -2 13 -5z m-2992 -115 c-3 -12 -7 -24 -10 -27 -3 -3 -3 5 -1 19
6 30 5 29 10 29 3 0 3 -10 1 -21z m2962 -343 c0 -8 -6 -12 -15 -9 -11 5 -11 7
0 14 7 5 13 9 14 9 0 0 1 -6 1 -14z m22 -194 c6 -12 5 -23 -4 -35 -11 -15 -12
-13 -11 18 1 40 2 41 15 17z m-2905 -8 c3 -8 2 -12 -4 -9 -6 3 -10 10 -10 16
0 14 7 11 14 -7z m2904 -783 c10 -6 10 -10 -3 -21 -12 -10 -18 -11 -28 -1 -9
10 -8 11 6 6 19 -8 24 10 5 18 -7 3 -8 6 -3 6 6 0 16 -3 23 -8z m-2815 -15 c4
-10 1 -13 -9 -9 -7 3 -14 9 -14 14 0 14 17 10 23 -5z m2802 -86 c-3 -5 -14
-10 -23 -10 -15 0 -15 2 -2 10 20 13 33 13 25 0z m-56 -156 c-22 -24 -49 -23
-30 0 6 7 7 17 3 22 -4 4 2 2 12 -6 18 -14 19 -13 13 2 -4 12 -2 15 9 11 13
-5 11 -10 -7 -29z m-1377 -164 c7 0 6 5 -2 15 -7 8 -10 15 -8 15 3 0 13 -10
24 -22 10 -13 15 -20 10 -16 -5 4 -15 3 -23 -3 -9 -9 -13 -8 -13 0 0 6 -4 10
-9 9 -9 -3 -11 2 -11 25 0 6 5 4 11 -5 5 -10 15 -18 21 -18z m1219 -17 c7 -10
9 -15 5 -11 -5 4 -15 3 -22 -3 -13 -10 -32 6 -20 18 3 4 6 1 6 -6 0 -7 5 -9
10 -6 6 4 8 11 5 16 -10 16 2 10 16 -8z m-2376 -22 c-7 -12 29 -33 39 -24 3 3
6 -1 6 -10 0 -14 -5 -14 -36 5 -26 15 -32 23 -22 29 17 11 20 11 13 0z m605
-73 c0 -12 -10 -9 -26 6 -20 21 -17 28 6 14 11 -7 20 -16 20 -20z m141 19 c-6
-8 -9 -17 -6 -20 3 -4 2 -5 -2 -2 -3 3 -13 -1 -22 -8 -14 -11 -15 -10 -1 8 15
20 31 35 39 35 2 0 -2 -6 -8 -13z m840 -11 c1 5 1 13 0 17 -1 5 3 6 9 2 8 -5
8 -11 0 -20 -9 -11 -16 -12 -31 -2 -10 6 -19 16 -19 21 0 5 9 1 20 -9 11 -10
21 -14 21 -9z m59 2 c10 -21 10 -21 -3 -6 -8 10 -18 14 -22 10 -5 -4 -5 -1 -1
6 10 17 14 15 26 -10z m285 6 c24 16 27 14 37 -14 4 -12 -2 -16 -22 -18 -16
-1 -32 3 -35 8 -5 8 -11 8 -20 0 -9 -7 -16 -6 -25 5 -9 10 -9 15 -1 15 6 0 11
-5 11 -11 0 -5 4 -8 10 -4 5 3 7 13 4 23 -5 15 -4 15 6 -1 11 -17 14 -17 35
-3z m102 -9 c-15 -16 -19 -13 -11 9 3 9 10 13 15 10 5 -3 3 -11 -4 -19z
m-1617 -9 c0 -10 -30 0 -34 11 -4 11 -1 11 14 3 11 -6 20 -12 20 -14z m45 4
c3 0 3 4 0 10 -3 6 1 7 10 4 20 -8 13 -16 -19 -19 -14 -2 -27 3 -30 11 -4 11
-2 12 14 4 10 -5 21 -10 25 -10z m1222 5 c0 -8 -4 -12 -9 -9 -4 3 -8 9 -8 15
0 5 4 9 8 9 5 0 9 -7 9 -15z m48 1 c11 2 23 -2 27 -9 6 -9 12 -7 22 6 14 17
32 24 21 8 -3 -5 -1 -12 4 -15 5 -4 12 2 15 11 4 15 5 15 3 -1 -2 -23 -51 -33
-72 -16 -10 8 -15 8 -20 0 -8 -13 -35 5 -35 24 0 8 2 8 8 0 4 -6 16 -10 27 -8z
m-1525 0 c0 -3 -4 -8 -10 -11 -5 -3 -10 -1 -10 4 0 6 5 11 10 11 6 0 10 -2 10
-4z m24 -12 c3 -8 2 -12 -4 -9 -6 3 -10 10 -10 16 0 14 7 11 14 -7z m291 6 c3
-6 -1 -7 -9 -4 -18 7 -21 14 -7 14 6 0 13 -4 16 -10z m109 -29 c-8 -9 -22 12
-17 26 6 15 7 14 13 -3 4 -10 6 -21 4 -23z m866 29 c0 -5 -8 -7 -17 -5 -10 1
-24 -2 -31 -8 -9 -7 -11 -6 -7 5 6 16 55 22 55 8z"/>
<path d="M2556 385 c-18 -13 -18 -14 3 -12 11 1 21 7 21 14 0 16 0 16 -24 -2z"/>
<path d="M630 3103 c0 -5 5 -15 10 -23 7 -12 9 -10 7 8 -1 19 -17 33 -17 15z"/>
<path d="M681 3094 c0 -11 3 -14 6 -6 3 7 2 16 -1 19 -3 4 -6 -2 -5 -13z"/>
<path d="M773 3095 c0 -7 6 -11 14 -8 7 3 13 6 13 8 0 2 -6 5 -13 8 -8 3 -14
-1 -14 -8z"/>
<path d="M850 3101 c0 -6 4 -13 10 -16 6 -3 7 1 4 9 -7 18 -14 21 -14 7z"/>
<path d="M1304 3096 c-3 -8 -11 -14 -17 -12 -7 1 -9 1 -4 -1 4 -3 5 -8 3 -12
-3 -4 9 -7 26 -6 18 1 34 8 36 16 3 11 1 11 -7 -1 -8 -11 -11 -12 -11 -2 0 8
-5 10 -12 6 -8 -5 -9 -2 -5 9 3 10 4 17 1 17 -2 0 -7 -6 -10 -14z"/>
<path d="M1476 3097 c3 -10 9 -15 12 -12 3 3 0 11 -7 18 -10 9 -11 8 -5 -6z"/>
<path d="M1544 3095 c-4 -8 -11 -12 -18 -8 -7 4 -7 1 1 -8 15 -19 55 -18 61 2
3 11 1 11 -7 -1 -8 -11 -11 -12 -11 -2 0 8 -5 10 -12 6 -8 -5 -9 -2 -5 9 3 10
4 17 1 17 -2 0 -7 -7 -10 -15z"/>
<path d="M1596 3099 c3 -5 10 -7 15 -4 12 8 12 -8 -1 -21 -15 -15 39 -11 65 4
11 6 15 12 10 12 -6 0 -16 -5 -22 -11 -7 -7 -15 -5 -28 7 -19 19 -49 29 -39
13z"/>
<path d="M2135 3100 c-3 -5 -1 -10 4 -10 6 0 11 5 11 10 0 6 -2 10 -4 10 -3 0
-8 -4 -11 -10z"/>
<path d="M2220 3106 c0 -2 7 -9 15 -16 9 -7 15 -8 15 -2 0 5 -7 12 -15 16 -8
3 -15 4 -15 2z"/>
<path d="M2425 3100 c-7 -12 2 -30 16 -30 5 0 9 5 9 11 0 5 -5 7 -12 3 -8 -5
-9 -2 -5 9 7 19 2 23 -8 7z"/>
<path d="M2476 3097 c3 -10 9 -15 12 -12 3 3 0 11 -7 18 -10 9 -11 8 -5 -6z"/>
<path d="M2545 3100 c-7 -12 2 -30 16 -30 5 0 9 5 9 11 0 5 -5 7 -12 3 -8 -5
-9 -2 -5 9 7 19 2 23 -8 7z"/>
<path d="M2601 3094 c0 -11 3 -14 6 -6 3 7 2 16 -1 19 -3 4 -6 -2 -5 -13z"/>
<path d="M2695 3090 c2 -12 7 -25 10 -28 3 -3 4 4 2 16 -2 12 -6 24 -10 28 -3
4 -4 -4 -2 -16z"/>
<path d="M2762 3097 c-8 -10 -6 -13 7 -13 11 0 17 6 14 13 -3 7 -6 13 -8 13
-1 0 -7 -6 -13 -13z"/>
<path d="M2869 3083 c-13 -16 -12 -17 4 -4 16 13 21 21 13 21 -2 0 -10 -8 -17
-17z"/>
<path d="M475 3080 c3 -5 8 -10 11 -10 2 0 4 5 4 10 0 6 -5 10 -11 10 -5 0 -7
-4 -4 -10z"/>
<path d="M894 3083 c4 -4 16 -8 28 -10 28 -4 18 6 -12 12 -12 2 -20 1 -16 -2z"/>
<path d="M1220 3081 c0 -7 -5 -9 -12 -5 -7 5 -8 3 -3 -5 5 -9 10 -10 18 -2 6
6 8 14 4 18 -4 3 -7 1 -7 -6z"/>
<path d="M1935 3080 c-3 -5 -1 -10 4 -10 6 0 11 5 11 10 0 6 -2 10 -4 10 -3 0
-8 -4 -11 -10z"/>
<path d="M2191 3074 c6 -7 17 -10 25 -7 19 7 8 22 -16 20 -14 -1 -16 -5 -9
-13z"/>
<path d="M1789 3063 c-13 -16 -12 -17 4 -4 9 7 17 15 17 17 0 8 -8 3 -21 -13z"/>
<path d="M2150 3069 c0 -5 5 -7 10 -4 6 3 10 8 10 11 0 2 -4 4 -10 4 -5 0 -10
-5 -10 -11z"/>
<path d="M1690 3061 c0 -6 5 -13 10 -16 6 -3 10 1 10 9 0 9 -4 16 -10 16 -5 0
-10 -4 -10 -9z"/>
<path d="M1910 3066 c0 -2 8 -10 18 -17 15 -13 16 -12 3 4 -13 16 -21 21 -21
13z"/>
<path d="M2822 3059 c2 -6 8 -10 13 -10 5 0 11 4 13 10 2 6 -4 11 -13 11 -9 0
-15 -5 -13 -11z"/>
<path d="M358 3053 c7 -3 16 -2 19 1 4 3 -2 6 -13 5 -11 0 -14 -3 -6 -6z"/>
<path d="M1117 3036 c-17 -13 -17 -14 0 -20 10 -4 14 -4 10 0 -4 4 -2 13 4 21
14 17 9 16 -14 -1z"/>
<path d="M1147 3037 c-3 -7 3 -13 13 -13 10 0 16 6 13 13 -3 7 -9 13 -13 13
-4 0 -10 -6 -13 -13z"/>
<path d="M1746 3042 c-3 -5 1 -9 9 -9 8 0 15 4 15 9 0 4 -4 8 -9 8 -6 0 -12
-4 -15 -8z"/>
<path d="M2993 3016 c3 -7 0 -20 -6 -27 -10 -11 -9 -11 5 0 15 11 15 41 1 41
-3 0 -3 -6 0 -14z"/>
<path d="M226 2922 c-3 -5 1 -9 9 -9 8 0 15 4 15 9 0 4 -4 8 -9 8 -6 0 -12 -4
-15 -8z"/>
<path d="M3100 2877 c0 -2 6 -10 14 -16 11 -9 16 -9 22 1 4 7 4 10 -1 6 -4 -4
-14 -3 -22 3 -7 6 -13 9 -13 6z"/>
<path d="M3146 2837 c3 -10 9 -15 12 -12 3 3 0 11 -7 18 -10 9 -11 8 -5 -6z"/>
<path d="M180 2745 c-9 -10 -9 -15 -1 -15 6 0 11 6 12 13 0 6 4 3 8 -7 5 -12
10 -15 14 -9 4 6 1 16 -7 22 -10 9 -16 8 -26 -4z"/>
<path d="M3205 2702 c-10 -7 -18 -32 -10 -32 2 0 9 9 15 20 12 22 11 24 -5 12z"/>
<path d="M177 2613 c-11 -10 -8 -20 7 -26 8 -3 13 0 12 8 -3 19 -11 27 -19 18z"/>
<path d="M3230 2600 c0 -5 5 -10 11 -10 5 0 7 5 4 10 -3 6 -8 10 -11 10 -2 0
-4 -4 -4 -10z"/>
<path d="M191 2456 c-9 -10 -9 -16 -1 -21 6 -4 14 -4 17 -1 4 3 1 6 -7 6 -10
0 -10 3 0 15 7 8 10 15 7 15 -2 0 -10 -6 -16 -14z"/>
<path d="M3247 2439 c7 -7 15 -10 18 -7 3 3 -2 9 -12 12 -14 6 -15 5 -6 -5z"/>
<path d="M190 2399 c0 -5 5 -7 10 -4 6 3 10 8 10 11 0 2 -4 4 -10 4 -5 0 -10
-5 -10 -11z"/>
<path d="M3238 2283 c7 -3 16 -2 19 1 4 3 -2 6 -13 5 -11 0 -14 -3 -6 -6z"/>
<path d="M196 2193 c-6 -14 -5 -15 5 -6 7 7 10 15 7 18 -3 3 -9 -2 -12 -12z"/>
<path d="M3240 2139 c0 -5 5 -7 10 -4 6 3 10 8 10 11 0 2 -4 4 -10 4 -5 0 -10
-5 -10 -11z"/>
<path d="M3217 2116 c-4 -10 -1 -13 8 -9 8 3 12 9 9 14 -7 12 -11 11 -17 -5z"/>
<path d="M225 2060 c3 -5 11 -10 16 -10 6 0 7 5 4 10 -3 6 -11 10 -16 10 -6 0
-7 -4 -4 -10z"/>
<path d="M233 2004 c0 -7 4 -11 8 -8 4 2 9 -2 12 -8 3 -7 5 -4 4 8 -1 22 -24
30 -24 8z"/>
<path d="M236 1881 c-3 -5 2 -15 12 -22 15 -12 16 -12 5 2 -7 9 -10 19 -6 22
3 4 4 7 0 7 -3 0 -8 -4 -11 -9z"/>
<path d="M3226 1798 c3 -5 10 -6 15 -3 13 9 11 12 -6 12 -8 0 -12 -4 -9 -9z"/>
<path d="M255 1780 c3 -5 8 -10 11 -10 2 0 4 5 4 10 0 6 -5 10 -11 10 -5 0 -7
-4 -4 -10z"/>
<path d="M250 1666 c0 -2 7 -7 16 -10 8 -3 12 -2 9 4 -6 10 -25 14 -25 6z"/>
<path d="M296 1615 c-9 -26 -7 -32 5 -12 6 10 9 21 6 23 -2 3 -7 -2 -11 -11z"/>
<path d="M3240 1586 c0 -2 7 -7 16 -10 8 -3 12 -2 9 4 -6 10 -25 14 -25 6z"/>
<path d="M310 1466 c0 -2 7 -9 15 -16 13 -11 14 -10 9 4 -5 14 -24 23 -24 12z"/>
<path d="M3236 1458 c3 -5 10 -6 15 -3 13 9 11 12 -6 12 -8 0 -12 -4 -9 -9z"/>
<path d="M3273 1445 c0 -8 4 -12 9 -9 5 3 6 10 3 15 -9 13 -12 11 -12 -6z"/>
<path d="M3236 1424 c-16 -16 -13 -34 6 -34 5 0 8 6 5 14 -3 7 0 19 6 25 6 6
8 11 5 11 -4 0 -14 -7 -22 -16z"/>
<path d="M335 1200 c-3 -5 -2 -10 4 -10 5 0 13 5 16 10 3 6 2 10 -4 10 -5 0
-13 -4 -16 -10z"/>
<path d="M359 1188 c-9 -19 -5 -57 6 -62 10 -3 12 1 9 17 -3 12 -6 28 -6 35
-1 11 -6 16 -9 10z"/>
<path d="M3235 1160 c-3 -5 -1 -10 4 -10 6 0 11 5 11 10 0 6 -2 10 -4 10 -3 0
-8 -4 -11 -10z"/>
<path d="M3250 1091 c0 -6 4 -13 10 -16 6 -3 7 1 4 9 -7 18 -14 21 -14 7z"/>
<path d="M3238 1003 c7 -3 16 -2 19 1 4 3 -2 6 -13 5 -11 0 -14 -3 -6 -6z"/>
<path d="M3224 943 c10 -11 37 -12 30 -2 -3 5 -12 9 -21 9 -9 0 -13 -3 -9 -7z"/>
<path d="M404 852 c3 -6 -2 -13 -11 -15 -16 -4 -16 -5 -1 -6 21 -1 32 15 17
25 -7 4 -9 3 -5 -4z"/>
<path d="M3210 856 c0 -2 8 -10 18 -17 15 -13 16 -12 3 4 -13 16 -21 21 -21
13z"/>
<path d="M3260 840 c-9 -6 -10 -10 -3 -10 6 0 15 5 18 10 8 12 4 12 -15 0z"/>
<path d="M405 760 c3 -5 8 -10 11 -10 2 0 4 5 4 10 0 6 -5 10 -11 10 -5 0 -7
-4 -4 -10z"/>
<path d="M410 715 c14 -8 22 -14 17 -15 -4 0 0 -14 9 -31 9 -18 12 -34 7 -38
-4 -3 -9 -13 -11 -21 -3 -12 -1 -12 9 -3 17 17 19 74 3 80 -8 3 -12 9 -9 14 3
4 -3 13 -14 18 -30 16 -40 12 -11 -4z"/>
<path d="M465 600 c3 -5 1 -10 -4 -10 -6 0 -11 -5 -11 -11 0 -8 4 -8 13 0 10
8 17 7 27 -2 8 -6 6 -2 -4 11 -19 22 -32 30 -21 12z"/>
<path d="M1666 519 c2 -4 0 -10 -6 -14 -5 -3 -10 -1 -10 6 0 7 -3 10 -6 6 -3
-3 -1 -14 5 -24 6 -11 11 -13 11 -5 0 7 4 11 9 7 6 -3 14 3 20 13 7 14 6 18
-9 18 -10 0 -17 -4 -14 -7z"/>
<path d="M1706 515 c-3 -8 0 -17 6 -21 6 -4 8 -3 4 4 -3 5 -1 12 6 14 8 3 9 6
1 11 -6 4 -13 0 -17 -8z"/>
<path d="M3056 481 c-3 -5 2 -15 12 -22 15 -12 16 -12 5 2 -7 9 -10 19 -6 22
3 4 4 7 0 7 -3 0 -8 -4 -11 -9z"/>
<path d="M1710 476 c0 -2 8 -10 18 -17 15 -13 16 -12 3 4 -13 16 -21 21 -21
13z"/>
<path d="M1862 428 c-15 -15 -16 -28 -1 -28 5 0 7 5 4 10 -3 6 -2 10 4 10 15
0 23 -18 11 -25 -5 -3 -10 -12 -10 -18 0 -8 4 -7 9 2 5 8 19 16 32 18 18 3 20
1 10 -11 -9 -11 -9 -16 0 -22 7 -4 9 -3 5 4 -9 15 13 27 27 13 14 -14 27 -14
27 -1 0 6 -3 9 -7 8 -5 -1 -23 6 -40 15 -18 10 -33 14 -33 10 0 -4 -6 1 -13
10 -10 14 -15 15 -25 5z"/>
<path d="M2918 435 c-4 -4 -2 -13 5 -20 9 -10 14 -9 25 4 12 14 13 14 7 -4 -5
-15 -3 -17 6 -8 16 16 2 38 -16 23 -9 -8 -14 -8 -17 0 -2 6 -6 8 -10 5z"/>
<path d="M900 392 c0 -4 7 -16 15 -26 15 -19 15 -19 15 1 0 11 -7 23 -15 27
-8 3 -15 2 -15 -2z"/>
<path d="M1990 382 c0 -15 2 -15 10 -2 8 13 10 13 10 -2 0 -9 -6 -19 -12 -22
-7 -2 -2 -4 12 -3 19 2 25 -3 23 -17 -1 -13 2 -15 10 -7 7 7 6 16 -5 28 -8 10
-14 23 -12 28 3 6 -5 11 -16 12 -13 1 -20 -4 -20 -15z"/>
<path d="M1270 380 c0 -5 5 -10 11 -10 5 0 8 -4 5 -8 -3 -5 1 -9 9 -9 13 0 12
4 -2 19 -18 21 -23 22 -23 8z"/>
<path d="M1420 381 c0 -9 30 -24 36 -18 2 1 -6 8 -16 15 -11 7 -20 8 -20 3z"/>
<path d="M2696 381 c-3 -5 0 -16 8 -24 8 -8 13 -17 10 -20 -3 -3 -1 -8 4 -11
8 -5 9 22 2 32 -2 1 -3 6 -4 11 -2 16 -14 23 -20 12z"/>
<path d="M2740 375 c-15 -19 1 -26 22 -10 11 7 27 11 34 8 8 -3 14 -1 14 4 0
13 -59 12 -70 -2z"/>
<path d="M2815 361 c-3 -5 -2 -12 3 -15 5 -3 9 1 9 9 0 17 -3 19 -12 6z"/>
<path d="M950 350 c-13 -8 -12 -10 3 -10 9 0 17 5 17 10 0 12 -1 12 -20 0z"/>
<path d="M1084 338 l-19 -23 23 19 c21 18 27 26 19 26 -2 0 -12 -10 -23 -22z"/>
<path d="M1161 351 c-8 -5 -9 -11 -3 -15 5 -3 12 1 16 9 6 17 6 18 -13 6z"/>
<path d="M2666 347 c-16 -12 -16 -13 2 -13 10 0 19 6 19 13 0 7 -1 13 -2 13
-1 0 -9 -6 -19 -13z"/>
<path d="M2090 339 c0 -5 5 -7 10 -4 6 3 10 8 10 11 0 2 -4 4 -10 4 -5 0 -10
-5 -10 -11z"/>
<path d="M2315 340 c3 -5 8 -10 11 -10 2 0 4 5 4 10 0 6 -5 10 -11 10 -5 0 -7
-4 -4 -10z"/>
<path d="M2356 342 c-3 -5 1 -9 9 -9 8 0 12 4 9 9 -3 4 -7 8 -9 8 -2 0 -6 -4
-9 -8z"/>
<path d="M2516 342 c-3 -5 1 -9 9 -9 8 0 12 4 9 9 -3 4 -7 8 -9 8 -2 0 -6 -4
-9 -8z"/>
<path d="M2255 320 c-3 -5 -1 -10 4 -10 6 0 11 5 11 10 0 6 -2 10 -4 10 -3 0
-8 -4 -11 -10z"/>
</g>
</svg>
